# xmcd
#
# Track frame offsets:
#	183
#	13813
#	26423
#	40018
#	50373
#	61650
#	85675
#	99298
#	113598
#	133570
#	147033
#
# Disc length: 2199 seconds
#
# Revision: 0
# Processed by: cddbd v1.4PL0 Copyright (c) Steve Scherf et al.
# Submitted via: audiograbber 1.82.02
#
DISCID=7a08950b
DTITLE=ANDY GLANDT and GREEENHORN - EIN GREENHORN KOMMT SELTEN ALLEIN ...
DYEAR=1992
DGENRE=Country
TTITLE0=ANDY GLANDT and GREEENHORN-IN AMERIKA
TTITLE1=ANDY GLANDT and GREEENHORN-EIN GREENHORN KOMMT SELTEN ALLEIN
TTITLE2=ANDY GLANDT and GREEENHORN-HOMETOWN MEMORIES
TTITLE3=ANDY GLANDT and GREEENHORN-PAPERMILL RAG
TTITLE4=ANDY GLANDT and GREEENHORN-HEY, KLEINER FREUND
TTITLE5=ANDY GLANDT and GREEENHORN-SONNTAGMORGEN
TTITLE6=ANDY GLANDT and GREEENHORN-TRUCKER LADY
TTITLE7=ANDY GLANDT and GREEENHORN-BANJOPICKER IN A COUNTRY BAND
TTITLE8=ANDY GLANDT and GREEENHORN-WENN DU FÄHRST
TTITLE9=ANDY GLANDT and GREEENHORN-LÜGEN KANNST DU NICHT
TTITLE10=ANDY GLANDT and GREEENHORN-LAST NIGHT DREAM
EXTD=
EXTT0=
EXTT1=
EXTT2=
EXTT3=
EXTT4=
EXTT5=
EXTT6=
EXTT7=
EXTT8=
EXTT9=
EXTT10=
PLAYORDER=
